# Blender v2.93.4 OBJ File: 'tube_0.5.1.obj.blend'
# www.blender.org
mtllib tube_0.5.1.mtl
o Окружность_Окружность.001
v 0.419177 1.017001 0.000000
v -0.422724 1.015528 0.000000
v -1.017001 0.419177 -0.000000
v -1.015528 -0.422724 -0.000000
v -0.419177 -1.017001 -0.000000
v 0.422724 -1.015528 -0.000000
v 1.017001 -0.419177 0.000000
v 1.015528 0.422723 0.000000
v 0.419177 1.017000 -5.000000
v -0.422724 1.015527 -5.000000
v -1.017001 0.419177 -5.000000
v -1.015529 -0.422724 -5.000000
v -0.419178 -1.017001 -5.000000
v 0.422723 -1.015529 -5.000000
v 1.017000 -0.419178 -5.000000
v 1.015528 0.422723 -5.000000
v 0.381070 0.924546 0.000000
v -0.384295 0.923210 0.000000
v -0.924546 0.381070 -0.000000
v -0.923210 -0.384295 -0.000000
v -0.381070 -0.924546 -0.000000
v 0.384295 -0.923210 -0.000000
v 0.924546 -0.381070 0.000000
v 0.923210 0.384295 0.000000
v 0.381070 0.924545 -5.000000
v -0.384296 0.923209 -5.000000
v -0.924547 0.381070 -5.000000
v -0.923211 -0.384296 -5.000000
v -0.381071 -0.924547 -5.000000
v 0.384295 -0.923211 -5.000000
v 0.924545 -0.381071 -5.000000
v 0.923210 0.384295 -5.000000
vt 0.000000 0.000000
vt 0.000000 0.000000
vt 0.000000 0.000000
vt 0.000000 0.000000
vt 0.000000 0.000000
vt 0.000000 0.000000
vt 0.000000 0.000000
vt 0.000000 0.000000
vt 0.000000 0.000000
vt 0.000000 0.000000
vt 0.000000 0.000000
vt 0.000000 0.000000
vt 0.000000 0.000000
vt 0.000000 0.000000
vt 0.000000 0.000000
vt 0.000000 0.000000
vt 0.000000 0.000000
vt 0.000000 0.000000
vt 0.000000 0.000000
vt 0.000000 0.000000
vt 0.000000 0.000000
vt 0.000000 0.000000
vt 0.000000 0.000000
vt 0.000000 0.000000
vt 0.000000 0.000000
vt 0.000000 0.000000
vt 0.000000 0.000000
vt 0.000000 0.000000
vt 0.000000 0.000000
vt 0.000000 0.000000
vt 0.000000 0.000000
vt 0.000000 0.000000
vn 1.0000 0.0017 -0.0000
vn 0.0017 -1.0000 0.0000
vn -1.0000 -0.0017 0.0000
vn -0.0017 1.0000 -0.0000
vn 0.7059 0.7083 -0.0000
vn 0.7083 -0.7059 0.0000
vn -0.7059 -0.7083 0.0000
vn -0.7083 0.7059 -0.0000
vn -0.0000 -0.0000 1.0000
vn 0.0000 0.0000 -1.0000
usemtl None
s off
f 8/1/1 7/2/1 15/3/1 16/4/1
f 6/5/2 5/6/2 13/7/2 14/8/2
f 4/9/3 3/10/3 11/11/3 12/12/3
f 2/13/4 1/14/4 9/15/4 10/16/4
f 1/14/5 8/1/5 16/4/5 9/15/5
f 7/2/6 6/5/6 14/8/6 15/3/6
f 5/6/7 4/9/7 12/12/7 13/7/7
f 3/10/8 2/13/8 10/16/8 11/11/8
f 24/17/3 32/18/3 31/19/3 23/20/3
f 22/21/4 30/22/4 29/23/4 21/24/4
f 20/25/1 28/26/1 27/27/1 19/28/1
f 18/29/2 26/30/2 25/31/2 17/32/2
f 17/32/7 25/31/7 32/18/7 24/17/7
f 23/20/8 31/19/8 30/22/8 22/21/8
f 21/24/5 29/23/5 28/26/5 20/25/5
f 19/28/6 27/27/6 26/30/6 18/29/6
f 1/14/9 2/13/9 18/29/9 17/32/9
f 2/13/9 3/10/9 19/28/9 18/29/9
f 3/10/9 4/9/9 20/25/9 19/28/9
f 4/9/9 5/6/9 21/24/9 20/25/9
f 5/6/9 6/5/9 22/21/9 21/24/9
f 6/5/9 7/2/9 23/20/9 22/21/9
f 7/2/9 8/1/9 24/17/9 23/20/9
f 8/1/9 1/14/9 17/32/9 24/17/9
f 10/16/10 9/15/10 25/31/10 26/30/10
f 11/11/10 10/16/10 26/30/10 27/27/10
f 12/12/10 11/11/10 27/27/10 28/26/10
f 13/7/10 12/12/10 28/26/10 29/23/10
f 14/8/10 13/7/10 29/23/10 30/22/10
f 15/3/10 14/8/10 30/22/10 31/19/10
f 16/4/10 15/3/10 31/19/10 32/18/10
f 9/15/10 16/4/10 32/18/10 25/31/10
